<svg xmlns="http://www.w3.org/2000/svg" width="256" height="256" viewBox="0 0 100 100"><rect width="100" height="100" rx="20" fill="#22d3ee"></rect><path fill="#164e63" d="M11.97 54.40L11.25 52.27L6.96 52.27Q6.85 52.59 6.72 52.97Q6.59 53.34 6.47 53.70Q6.35 54.06 6.24 54.38Q6.13 54.69 6.06 54.90L6.06 54.90Q5.84 54.99 5.54 54.99L5.54 54.99Q5.28 54.99 5.08 54.86Q4.88 54.72 4.88 54.42L4.88 54.42Q4.88 54.27 4.93 54.12Q4.98 53.97 5.04 53.79L5.04 53.79Q5.28 53.12 5.66 52.06Q6.03 51.01 6.47 49.82Q6.91 48.62 7.37 47.42Q7.82 46.21 8.21 45.25L8.21 45.25Q8.34 45.18 8.59 45.12Q8.85 45.06 9.12 45.06L9.12 45.06Q9.44 45.06 9.74 45.15Q10.03 45.25 10.11 45.47L10.11 45.47Q10.50 46.40 10.94 47.59Q11.38 48.78 11.82 50.03Q12.27 51.28 12.68 52.49Q13.09 53.70 13.41 54.67L13.41 54.67Q13.28 54.82 13.10 54.90Q12.93 54.99 12.70 54.99L12.70 54.99Q12.40 54.99 12.24 54.86Q12.08 54.72 11.97 54.40L11.97 54.40ZM9.17 46.14L9.10 46.14Q8.93 46.62 8.70 47.24Q8.48 47.86 8.24 48.53Q8.00 49.20 7.76 49.89Q7.52 50.58 7.31 51.20L7.31 51.20L10.91 51.20Q10.67 50.48 10.42 49.75Q10.16 49.02 9.93 48.35Q9.70 47.68 9.50 47.11Q9.30 46.54 9.17 46.14L9.17 46.14ZM22.40 46.21L22.40 46.21Q22.40 46.43 22.26 46.59Q22.13 46.75 21.95 46.83L21.95 46.83Q21.54 46.54 20.98 46.29Q20.42 46.03 19.52 46.03L19.52 46.03Q18.78 46.03 18.16 46.29Q17.54 46.54 17.07 47.04Q16.61 47.54 16.34 48.29Q16.08 49.04 16.08 50.02L16.08 50.02Q16.08 51.01 16.34 51.74Q16.59 52.48 17.05 52.98Q17.50 53.47 18.14 53.72Q18.78 53.97 19.57 53.97L19.57 53.97Q20.40 53.97 21.02 53.74Q21.63 53.50 22.05 53.18L22.05 53.18Q22.21 53.25 22.35 53.42Q22.50 53.58 22.50 53.81L22.50 53.81Q22.50 54.14 22.11 54.42L22.11 54.42Q21.74 54.67 21.10 54.87Q20.46 55.07 19.47 55.07L19.47 55.07Q18.46 55.07 17.60 54.75Q16.74 54.43 16.10 53.80Q15.47 53.17 15.10 52.22Q14.74 51.28 14.74 50.02L14.74 50.02Q14.74 48.75 15.11 47.80Q15.49 46.85 16.13 46.21Q16.77 45.57 17.62 45.25Q18.48 44.93 19.42 44.93L19.42 44.93Q20.08 44.93 20.63 45.04Q21.18 45.15 21.58 45.34Q21.97 45.52 22.18 45.75Q22.40 45.98 22.40 46.21ZM25.41 45.14L30.72 45.14Q30.77 45.22 30.82 45.35Q30.86 45.49 30.86 45.65L30.86 45.65Q30.86 45.92 30.74 46.08Q30.61 46.24 30.37 46.24L30.37 46.24L26.02 46.24L26.02 49.57L30.16 49.57Q30.21 49.65 30.26 49.78Q30.30 49.92 30.30 50.08L30.30 50.08Q30.30 50.35 30.18 50.51Q30.05 50.67 29.81 50.67L29.81 50.67L26.02 50.67L26.02 54.85Q25.94 54.88 25.77 54.91Q25.60 54.94 25.42 54.94L25.42 54.94Q24.70 54.94 24.70 54.37L24.70 54.37L24.70 45.84Q24.70 45.52 24.90 45.33Q25.09 45.14 25.41 45.14L25.41 45.14ZM34.29 54.83L34.29 54.83Q34.21 54.86 34.05 54.90Q33.89 54.94 33.70 54.94L33.70 54.94Q32.99 54.94 32.99 54.35L32.99 54.35L32.99 45.17Q33.07 45.14 33.24 45.10Q33.41 45.06 33.60 45.06L33.60 45.06Q34.29 45.06 34.29 45.65L34.29 45.65L34.29 54.83ZM42.93 54.43L40.43 50.83L37.49 54.94Q37.33 54.98 37.17 54.98L37.17 54.98Q36.85 54.98 36.66 54.82Q36.46 54.67 36.46 54.40L36.46 54.40Q36.46 54.19 36.57 54.02Q36.67 53.84 36.83 53.62L36.83 53.62L39.65 49.94L36.53 45.68Q36.61 45.41 36.79 45.22Q36.98 45.04 37.30 45.04L37.30 45.04Q37.55 45.04 37.73 45.19Q37.90 45.34 38.10 45.62L38.10 45.62L40.46 49.01L43.30 45.09Q43.38 45.07 43.46 45.06Q43.54 45.06 43.63 45.06L43.63 45.06Q43.97 45.06 44.14 45.22Q44.30 45.38 44.30 45.62L44.30 45.62Q44.30 45.79 44.22 45.96Q44.13 46.13 44.00 46.30L44.00 46.30Q43.33 47.20 42.64 48.10Q41.95 48.99 41.23 49.90L41.23 49.90L44.45 54.35Q44.37 54.62 44.19 54.80Q44.02 54.98 43.71 54.98L43.71 54.98Q43.46 54.98 43.29 54.85Q43.12 54.72 42.93 54.43L42.93 54.43ZM45.46 54.19L45.46 54.19Q45.46 53.81 45.69 53.55Q45.92 53.30 46.34 53.30L46.34 53.30Q46.75 53.30 46.98 53.55Q47.20 53.81 47.20 54.19L47.20 54.19Q47.20 54.56 46.98 54.82Q46.75 55.07 46.34 55.07L46.34 55.07Q45.92 55.07 45.69 54.82Q45.46 54.56 45.46 54.19ZM54.93 46.24L52.29 46.24L52.29 54.83Q52.21 54.86 52.04 54.90Q51.87 54.94 51.70 54.94L51.70 54.94Q50.99 54.94 50.99 54.35L50.99 54.35L50.99 46.24L48 46.24Q47.95 46.16 47.90 46.02Q47.86 45.89 47.86 45.71L47.86 45.71Q47.86 45.44 47.98 45.29Q48.11 45.14 48.35 45.14L48.35 45.14L55.28 45.14Q55.33 45.22 55.38 45.35Q55.42 45.49 55.42 45.65L55.42 45.65Q55.42 45.92 55.30 46.08Q55.17 46.24 54.93 46.24L54.93 46.24ZM65.97 50.00L65.97 50.00Q65.97 51.25 65.62 52.20Q65.26 53.15 64.64 53.78Q64.02 54.42 63.17 54.74Q62.32 55.07 61.33 55.07L61.33 55.07Q60.34 55.07 59.49 54.74Q58.64 54.42 58.02 53.78Q57.39 53.15 57.04 52.20Q56.69 51.25 56.69 50.00L56.69 50.00Q56.69 48.75 57.05 47.81Q57.41 46.86 58.03 46.22Q58.66 45.58 59.50 45.26Q60.35 44.93 61.33 44.93L61.33 44.93Q62.30 44.93 63.15 45.26Q64 45.58 64.62 46.22Q65.25 46.86 65.61 47.81Q65.97 48.75 65.97 50.00ZM64.64 50.00L64.64 50.00Q64.64 48.08 63.74 47.06Q62.83 46.03 61.33 46.03L61.33 46.03Q60.58 46.03 59.97 46.30Q59.36 46.56 58.93 47.06Q58.50 47.57 58.26 48.30Q58.03 49.04 58.03 50.00L58.03 50.00Q58.03 51.92 58.93 52.94Q59.82 53.97 61.33 53.97L61.33 53.97Q62.85 53.97 63.74 52.94Q64.64 51.92 64.64 50.00ZM75.09 49.89L75.09 49.89Q75.09 48.86 74.78 48.14Q74.46 47.41 73.93 46.94Q73.39 46.48 72.68 46.26Q71.97 46.05 71.15 46.05L71.15 46.05Q70.64 46.05 70.26 46.08Q69.89 46.11 69.57 46.18L69.57 46.18L69.57 53.79Q69.95 53.89 70.39 53.92Q70.83 53.95 71.30 53.95L71.30 53.95Q73.18 53.95 74.14 52.93Q75.09 51.90 75.09 49.89ZM76.42 49.89L76.42 49.89Q76.42 51.20 76.06 52.17Q75.70 53.14 75.03 53.78Q74.37 54.42 73.42 54.73Q72.48 55.04 71.31 55.04L71.31 55.04Q70.80 55.04 70.16 55.00Q69.52 54.96 68.94 54.78L68.94 54.78Q68.27 54.58 68.27 54.05L68.27 54.05L68.27 45.82Q68.27 45.57 68.40 45.43Q68.53 45.30 68.80 45.22L68.80 45.22Q69.30 45.06 69.92 45.01Q70.54 44.96 71.17 44.96L71.17 44.96Q72.34 44.96 73.30 45.27Q74.27 45.58 74.96 46.20Q75.65 46.82 76.03 47.74Q76.42 48.66 76.42 49.89ZM84.85 54.40L84.13 52.27L79.84 52.27Q79.73 52.59 79.60 52.97Q79.47 53.34 79.35 53.70Q79.23 54.06 79.12 54.38Q79.01 54.69 78.94 54.90L78.94 54.90Q78.72 54.99 78.42 54.99L78.42 54.99Q78.16 54.99 77.96 54.86Q77.76 54.72 77.76 54.42L77.76 54.42Q77.76 54.27 77.81 54.12Q77.86 53.97 77.92 53.79L77.92 53.79Q78.16 53.12 78.54 52.06Q78.91 51.01 79.35 49.82Q79.79 48.62 80.25 47.42Q80.70 46.21 81.09 45.25L81.09 45.25Q81.22 45.18 81.47 45.12Q81.73 45.06 82.00 45.06L82.00 45.06Q82.32 45.06 82.62 45.15Q82.91 45.25 82.99 45.47L82.99 45.47Q83.38 46.40 83.82 47.59Q84.26 48.78 84.70 50.03Q85.15 51.28 85.56 52.49Q85.97 53.70 86.29 54.67L86.29 54.67Q86.16 54.82 85.98 54.90Q85.81 54.99 85.58 54.99L85.58 54.99Q85.28 54.99 85.12 54.86Q84.96 54.72 84.85 54.40L84.85 54.40ZM82.05 46.14L81.98 46.14Q81.81 46.62 81.58 47.24Q81.36 47.86 81.12 48.53Q80.88 49.20 80.64 49.89Q80.40 50.58 80.19 51.20L80.19 51.20L83.79 51.20Q83.55 50.48 83.30 49.75Q83.04 49.02 82.81 48.35Q82.58 47.68 82.38 47.11Q82.18 46.54 82.05 46.14L82.05 46.14ZM95.12 45.58L95.12 45.58Q95.12 45.76 94.88 46.26Q94.64 46.77 94.21 47.52Q93.78 48.27 93.18 49.23Q92.58 50.19 91.86 51.26L91.86 51.26L91.86 54.83Q91.78 54.86 91.61 54.90Q91.44 54.94 91.26 54.94L91.26 54.94Q90.56 54.94 90.56 54.35L90.56 54.35L90.56 51.26Q90.11 50.61 89.64 49.87Q89.17 49.14 88.70 48.38Q88.24 47.63 87.82 46.91Q87.41 46.19 87.09 45.55L87.09 45.55Q87.15 45.38 87.33 45.21Q87.50 45.04 87.79 45.04L87.79 45.04Q88.10 45.04 88.26 45.20Q88.43 45.36 88.61 45.68L88.61 45.68Q88.86 46.13 89.21 46.74Q89.55 47.34 89.91 47.97Q90.27 48.59 90.61 49.18Q90.94 49.76 91.18 50.14L91.18 50.14L91.25 50.14Q92.08 48.75 92.73 47.55Q93.38 46.35 94.02 45.15L94.02 45.15Q94.11 45.09 94.25 45.06Q94.38 45.04 94.51 45.04L94.51 45.04Q95.12 45.04 95.12 45.58Z"></path></svg>