<svg id="visual" viewBox="0 0 960 540" width="960" height="540" xmlns="http://www.w3.org/2000/svg" xmlns:xlink="http://www.w3.org/1999/xlink" version="1.1"><rect x="0" y="0" width="960" height="540" fill="#334155"></rect><defs><linearGradient id="grad1_0" x1="43.8%" y1="100%" x2="100%" y2="0%"><stop offset="14.444444444444446%" stop-color="#22d3ee" stop-opacity="1"></stop><stop offset="85.55555555555554%" stop-color="#22d3ee" stop-opacity="1"></stop></linearGradient></defs><defs><linearGradient id="grad1_1" x1="43.8%" y1="100%" x2="100%" y2="0%"><stop offset="14.444444444444446%" stop-color="#22d3ee" stop-opacity="1"></stop><stop offset="85.55555555555554%" stop-color="#334155" stop-opacity="1"></stop></linearGradient></defs><defs><linearGradient id="grad2_0" x1="0%" y1="100%" x2="56.3%" y2="0%"><stop offset="14.444444444444446%" stop-color="#22d3ee" stop-opacity="1"></stop><stop offset="85.55555555555554%" stop-color="#22d3ee" stop-opacity="1"></stop></linearGradient></defs><defs><linearGradient id="grad2_1" x1="0%" y1="100%" x2="56.3%" y2="0%"><stop offset="14.444444444444446%" stop-color="#334155" stop-opacity="1"></stop><stop offset="85.55555555555554%" stop-color="#22d3ee" stop-opacity="1"></stop></linearGradient></defs><g transform="translate(960, 540)"><path d="M-324 0C-321.6 -33.9 -319.1 -67.8 -305.3 -99.2C-291.5 -130.6 -266.2 -159.7 -234.6 -170.5C-203 -181.3 -165 -173.9 -144.6 -199C-124.2 -224.2 -121.3 -281.9 -100.1 -308.1C-78.9 -334.4 -39.5 -329.2 0 -324L0 0Z" fill="#3d85a7"></path><path d="M-162 0C-160.8 -16.9 -159.6 -33.9 -152.6 -49.6C-145.7 -65.3 -133.1 -79.8 -117.3 -85.2C-101.5 -90.6 -82.5 -86.9 -72.3 -99.5C-62.1 -112.1 -60.6 -140.9 -50.1 -154.1C-39.5 -167.2 -19.7 -164.6 0 -162L0 0Z" fill="#22d3ee"></path></g><g transform="translate(0, 0)"><path d="M324 0C323.1 35.8 322.2 71.6 308.1 100.1C294.1 128.7 267 150 247.6 179.9C228.2 209.7 216.5 248 189.9 261.3C163.2 274.6 121.6 262.9 87.5 269.1C53.3 275.4 26.7 299.7 0 324L0 0Z" fill="#3d85a7"></path><path d="M162 0C161.5 17.9 161.1 35.8 154.1 50.1C147.1 64.3 133.5 75 123.8 89.9C114.1 104.8 108.2 124 94.9 130.7C81.6 137.3 60.8 131.4 43.7 134.6C26.7 137.7 13.3 149.9 0 162L0 0Z" fill="#22d3ee"></path></g></svg>