<svg id="visual" viewBox="0 0 960 540" width="960" height="540" xmlns="http://www.w3.org/2000/svg" xmlns:xlink="http://www.w3.org/1999/xlink" version="1.1"><rect x="0" y="0" width="960" height="540" fill="#2DD4BF"></rect><g transform="translate(517.6492205046902 259.95612262823903)"><path d="M156.8 -226.6C183.6 -196.4 172 -124.3 174.7 -68.1C177.4 -11.9 194.3 28.4 200.6 82.6C206.9 136.7 202.6 204.9 167.4 238.5C132.3 272 66.1 271 11 255.8C-44.1 240.7 -88.2 211.4 -138.9 182.8C-189.6 154.3 -247 126.6 -268.2 82.2C-289.4 37.8 -274.5 -23.3 -249.3 -74.8C-224 -126.4 -188.4 -168.4 -145.2 -193.1C-101.9 -217.9 -50.9 -225.4 7.1 -235.2C65 -244.9 130.1 -256.7 156.8 -226.6" fill="#F97316"></path></g></svg>