<svg id="visual" viewBox="0 0 960 540" width="960" height="540" xmlns="http://www.w3.org/2000/svg" xmlns:xlink="http://www.w3.org/1999/xlink" version="1.1"><rect x="0" y="0" width="960" height="540" fill="#164E63"></rect><path d="M0 244L20 249.5C40 255 80 266 120 277.5C160 289 200 301 240 309.2C280 317.3 320 321.7 360 324.8C400 328 440 330 480 325.2C520 320.3 560 308.7 600 303.3C640 298 680 299 720 286.8C760 274.7 800 249.3 840 253.5C880 257.7 920 291.3 940 308.2L960 325L960 541L940 541C920 541 880 541 840 541C800 541 760 541 720 541C680 541 640 541 600 541C560 541 520 541 480 541C440 541 400 541 360 541C320 541 280 541 240 541C200 541 160 541 120 541C80 541 40 541 20 541L0 541Z" fill="#fb923c"></path><path d="M0 362L20 361.7C40 361.3 80 360.7 120 356.8C160 353 200 346 240 331.8C280 317.7 320 296.3 360 292.7C400 289 440 303 480 315.3C520 327.7 560 338.3 600 333.5C640 328.7 680 308.3 720 311.7C760 315 800 342 840 341.2C880 340.3 920 311.7 940 297.3L960 283L960 541L940 541C920 541 880 541 840 541C800 541 760 541 720 541C680 541 640 541 600 541C560 541 520 541 480 541C440 541 400 541 360 541C320 541 280 541 240 541C200 541 160 541 120 541C80 541 40 541 20 541L0 541Z" fill="#cbaf34"></path><path d="M0 339L20 337C40 335 80 331 120 336.5C160 342 200 357 240 366.2C280 375.3 320 378.7 360 377.3C400 376 440 370 480 360C520 350 560 336 600 342C640 348 680 374 720 384.3C760 394.7 800 389.3 840 379.7C880 370 920 356 940 349L960 342L960 541L940 541C920 541 880 541 840 541C800 541 760 541 720 541C680 541 640 541 600 541C560 541 520 541 480 541C440 541 400 541 360 541C320 541 280 541 240 541C200 541 160 541 120 541C80 541 40 541 20 541L0 541Z" fill="#95c259"></path><path d="M0 416L20 411.5C40 407 80 398 120 395.3C160 392.7 200 396.3 240 399.7C280 403 320 406 360 412.3C400 418.7 440 428.3 480 431.2C520 434 560 430 600 426.5C640 423 680 420 720 420.7C760 421.3 800 425.7 840 420C880 414.3 920 398.7 940 390.8L960 383L960 541L940 541C920 541 880 541 840 541C800 541 760 541 720 541C680 541 640 541 600 541C560 541 520 541 480 541C440 541 400 541 360 541C320 541 280 541 240 541C200 541 160 541 120 541C80 541 40 541 20 541L0 541Z" fill="#5ace8f"></path><path d="M0 421L20 421.8C40 422.7 80 424.3 120 424.3C160 424.3 200 422.7 240 430.5C280 438.3 320 455.7 360 461.8C400 468 440 463 480 463.7C520 464.3 560 470.7 600 471.3C640 472 680 467 720 465C760 463 800 464 840 464.7C880 465.3 920 465.7 940 465.8L960 466L960 541L940 541C920 541 880 541 840 541C800 541 760 541 720 541C680 541 640 541 600 541C560 541 520 541 480 541C440 541 400 541 360 541C320 541 280 541 240 541C200 541 160 541 120 541C80 541 40 541 20 541L0 541Z" fill="#00d3c5"></path><path d="M0 487L20 486.5C40 486 80 485 120 486.3C160 487.7 200 491.3 240 492C280 492.7 320 490.3 360 488.2C400 486 440 484 480 487.7C520 491.3 560 500.7 600 504.7C640 508.7 680 507.3 720 500.5C760 493.7 800 481.3 840 475C880 468.7 920 468.3 940 468.2L960 468L960 541L940 541C920 541 880 541 840 541C800 541 760 541 720 541C680 541 640 541 600 541C560 541 520 541 480 541C440 541 400 541 360 541C320 541 280 541 240 541C200 541 160 541 120 541C80 541 40 541 20 541L0 541Z" fill="#22d3ee"></path></svg>